<?xml version="1.0" standalone="no"?><!DOCTYPE svg PUBLIC "-//W3C//DTD SVG 1.1//EN" "http://www.w3.org/Graphics/SVG/1.1/DTD/svg11.dtd"><svg t="1767121738584" class="icon" viewBox="0 0 1024 1024" version="1.1" xmlns="http://www.w3.org/2000/svg" p-id="25086" xmlns:xlink="http://www.w3.org/1999/xlink" width="200" height="200"><path d="M787 956H237c-93.3 0-169-75.7-169-169V237c0-93.3 75.7-169 169-169h550c93.3 0 169 75.7 169 169v550c0 93.3-75.7 169-169 169z" fill="#1E1E1E" p-id="25087"></path><path d="M763.3 540.4c1.2-64-30.1-121.4-79-156-10.2-7.2-21.1-13.4-32.6-18.5-8.6-3.8-17.5-6.9-26.7-9.4-13.5-3.6-27.5-5.8-42.1-6.3-3.3-0.1-6.6-0.1-9.9-0.1-2.7-4.9-4.2-10.7-4-16.7 0.1-3.5 0.8-6.8 1.9-9.9 4.6-12.8 17.1-21.8 31.5-21.3 3.4 0.1 6.7 0.8 9.8 1.9 1.6 0.6 3.1 1.3 4.6 2l0.6 0.3c0.4 0.2 0.8 0.5 1.2 0.7 1.6 0.9 3.2 1.6 4.9 2.2 14.6 5.2 31.2-0.8 38.9-14.7 8.2-14.8 3.6-33.2-10.2-42.4-1.1-0.7-2.2-1.3-3.3-1.9-1.2-0.7-2.5-1.4-3.8-2-3-1.4-6-2.7-9.1-4-9.8-3.8-20.4-6-31.4-6.4-25.1-0.9-48.3 7.9-66 23a99.27 99.27 0 0 0-19.6 22.7c-6 9.7-10.4 20.5-12.7 32.2-1 5-1.6 10.2-1.8 15.5-0.2 5.7 0.1 11.3 0.9 16.8 0.1 0.4 0.1 0.9 0.2 1.3 0.7 4.6 1.7 9.1 3.1 13.5-0.1 0-0.1 0-0.2 0.1C442.2 388.9 394 451.7 390 527c0 0.6-0.1 1.1-0.1 1.7v0.7c0 0.4 0 0.8-0.1 1.2v3.2c-0.6 66.1 51.6 121 118.1 123.3 11.2 0.4 22-0.7 32.4-3.2 52.4-12.4 92.1-58.5 94.1-114.8 0-1.3 0.1-2.5 0.1-3.8 0.1-15.4-2.7-30.1-7.9-43.7v-0.1l-22.8-60-5.6-14.8c11.4 2 22.2 5.6 32.2 10.5 41.5 20.3 69.6 63.3 68.6 112.3v1.9c0 0.6 0 1.2-0.1 1.9-4 91.3-73 164.6-160.7 176.7-10.5 1.5-21.3 2-32.3 1.7-103.1-3.6-183.8-90-180.2-193.1 1.3-37.4 13.5-71.9 33.5-100.5 23.4-33.5 57.5-58.8 97.2-71.3h0.1c0.8-0.3 1.7-0.5 2.5-0.8h0.1c12.1-4.3 21-15.7 21.5-29.3 0.1-2.9-0.2-5.6-0.8-8.3-3.2-14-15.4-24.6-30.4-25.1-2.9-0.1-5.8 0.2-8.5 0.8-1.4 0.4-2.8 0.8-4.2 1.3-98.7 31.2-171.7 121.7-175.5 231-4.8 138.7 103.8 255 242.5 259.8 3.4 0.1 6.8 0.2 10.2 0.2 77.9-0.4 147.8-36.5 193.8-93.2 33.2-41 53.9-92.7 55.8-149.5-0.3-1.2-0.3-2.3-0.2-3.3zM510 592.6c-31.4-1.1-56.1-27-55.8-58.3v-1.5c1.7-50.1 33.4-92.1 77.2-109.5l34.4 90.5 0.3 0.9c2.5 6.9 3.8 14.3 3.6 22.1-1 31.9-27.8 56.9-59.7 55.8z" fill="#FFBE68" p-id="25088"></path></svg>